<svg xmlns="http://www.w3.org/2000/svg" width="576.499" height="493.5" xmlns:v="https://vecta.io/nano"><path d="M169.422 488.35c9.255-7.82 14.876-20.173 13.402-32.2s-10.605-23.082-22.449-25.636-25.345 4.516-28.943 16.085c-1.98-22.306-4.261-45.547-16.12-64.542-10.738-17.2-29.337-29.507-49.494-31.709s-41.38 6.114-53.951 22.024-15.649 39.039-6.845 57.305c6.486 13.456 18.436 23.47 30.956 31.616 40.457 26.103 88.98 36.719 136.641 29.893" fill="#f2f2f2"/><path d="M31.799 356.924a326.88 326.88 0 0 1 45.554 45.235c21.383 25.791 38.687 54.707 51.308 85.741.924 2.264-2.752 3.25-3.666 1.011a324.46 324.46 0 0 0-29.647-56.094 325.7 325.7 0 0 0-66.237-73.205c-1.898-1.546.806-4.221 2.688-2.688z" fill="#fff"/><path d="M175.814 488.35c-9.255-7.82-14.876-20.173-13.402-32.2s10.605-23.082 22.449-25.636 25.345 4.516 28.943 16.085c1.98-22.306 4.261-45.547 16.12-64.542 10.738-17.2 29.337-29.507 49.494-31.709s41.38 6.114 53.951 22.024 15.649 39.039 6.845 57.305c-6.486 13.456-18.436 23.47-30.956 31.616-40.457 26.103-88.98 36.719-136.641 29.893" fill="#f2f2f2"/><path d="M313.437 356.924a326.88 326.88 0 0 0-45.554 45.235c-21.383 25.791-38.687 54.707-51.308 85.741-.924 2.264 2.752 3.25 3.666 1.011a325.99 325.99 0 0 1 95.884-129.299c1.898-1.546-.806-4.221-2.688-2.688z" fill="#fff"/><g fill="#f2f2f2"><circle cx="203.277" cy="191" r="31"/><path d="M107.695 84.138h213.581v11.685H134.961a83.42 83.42 0 0 0-83.419 83.418V312h-23.37c-2.151 0-3.895-1.744-3.895-3.895V167.556a83.42 83.42 0 0 1 83.419-83.418z"/></g><g fill="#3f3d56"><path d="M148.777 489V311.5h52V489c-.003 2.484-2.016 4.497-4.5 4.5h-43c-2.484-.003-4.497-2.016-4.5-4.5z"/><path d="M13.277 308V163.666C13.331 115.824 52.1 77.054 99.942 77h220.335v236h-302c-2.76-.003-4.997-2.24-5-5zm305-229H99.942c-46.737.053-84.612 37.928-84.665 84.666V308c.002 1.656 1.344 2.998 3 3h300z"/></g><path d="M203.277 207c-9.936-.011-17.989-8.064-18-18V60c-.002-1.656-1.344-2.998-3-3h-70c-2.76-.003-4.997-2.24-5-5V5c.003-2.76 2.24-4.997 5-5h104c2.76.003 4.997 2.24 5 5v184c-.011 9.936-8.064 17.989-18 18z" fill="#f07300"/><path d="M328.277 75h0c31.414-.066 56.934 25.347 57 56.761v164.31h112c9.369-.02 16.98 7.56 17 16.929h-243V131.761c.066-31.414 25.586-56.827 57-56.761z" fill="#3f3d56"/><path d="M314.599 168.567l11.803 48.756 230.881-55.892-11.803-48.756a3.64 3.64 0 0 0-2.358-2.595c-.428-.151-.881-.219-1.334-.201L408.329 40.778c-1.616-.825-3.592-.35-4.656 1.119l-64.32 89.694-24.248 33.823c-.089.12-.122.273-.089.418a3.64 3.64 0 0 0-.417 2.735z" fill="#fff"/><path d="M315.016 165.832a.49.49 0 0 0 .203.316.56.56 0 0 0 .433.086c.121-.032.226-.105.299-.207l.083-.115 1.263-1.766 22.929-31.964 64.301-89.673a2.62 2.62 0 0 1 3.322-.796l132.425 68.567 1.188.617a1.29 1.29 0 0 0 .147.052c.09-.016.18-.025.271-.026.124-.042.228-.129.29-.245.065-.123.079-.267.038-.4s-.133-.244-.256-.309l-.164-.087-133.459-69.102c-1.616-.825-3.592-.35-4.656 1.119l-64.32 89.694-24.248 33.823c-.089.12-.122.273-.089.418z" fill="#3f3d56"/><path d="M384.357 170.804l5.139.57 38.143 4.225 25.286 2.799 1.494.166 31.552-24.645 1.209-.944 7.452-5.82 26.514-20.706.159-1.454 9.43-85.114c.268-2.44-1.49-4.637-3.929-4.912L400.95 21.028c-2.44-.266-4.636 1.49-4.912 3.929l-6.65 60.038-3.689 33.286-3.3 29.778-1.53 13.829-.446 4.006a4.46 4.46 0 0 0 3.934 4.91z" fill="#e6e6e6"/><path d="M418.942 96.198l54.517 6.038 19.334 2.141a6.54 6.54 0 0 0 6.709-9.126 6.54 6.54 0 0 0-5.269-3.873l-24.047-2.663-49.799-5.522c-3.59-.397-6.823 2.191-7.222 5.782s2.188 6.824 5.778 7.225zm-3.104 24.116l.425.064 63.285 7.011 10.566 1.173c3.591.397 6.825-2.192 7.222-5.783s-2.192-6.825-5.783-7.222l-15.278-1.69-50.13-5.555-8.436-.935a6.54 6.54 0 0 0-1.87 12.937zm-7.162 21.384a6.54 6.54 0 0 0 4.88 3.125l25.939 2.873 46.197 5.118.01-.002 1.477.165 7.452-5.82a6.47 6.47 0 0 0 .001-1.33c-.324-3.059-2.73-5.481-5.787-5.824l-6.417-.713-25.457-2.817-18.317-2.031-23.66-2.622a6.54 6.54 0 0 0-6.319 9.88zm36.432-74.978l13.564 1.502 5.991.665 9.05 1.002c3.591.397 6.825-2.192 7.222-5.783s-2.192-6.825-5.783-7.222l-28.599-3.165a6.541 6.541 0 1 0-1.445 13.001z" fill="#fff"/><path d="M334.193 102.932l16.537 68.314 27.601 5.248 25.532 4.861 27.394 5.212 8.753 1.666c1.037.196 2.107-.063 2.94-.712l7.022-5.485 4.446-3.472 31.552-24.645-20.062-82.874c-.198-.824-.63-1.574-1.244-2.159a4.45 4.45 0 0 0-4.125-1.117L337.47 97.563a4.45 4.45 0 0 0-3.276 5.369z" fill="#f07300"/><g fill="#fff"><path d="M372.114 157.278a6.55 6.55 0 0 0 7.896 4.818l72.214-17.482a6.55 6.55 0 0 0 4.818-7.896 2.1 2.1 0 0 0-.071-.247 6.54 6.54 0 0 0-7.825-4.571l-72.214 17.482a6.55 6.55 0 0 0-4.818 7.896zm6.218 19.216l25.532 4.861 54.085-13.093a6.541 6.541 0 1 0-3.078-12.714l-72.214 17.482a6.49 6.49 0 0 0-3.747 2.511 6.55 6.55 0 0 0-.577.953zm52.925 10.073l8.753 1.666a3.67 3.67 0 0 0 2.94-.712l7.022-5.485zm-44.593-65.92a6.55 6.55 0 0 0 7.896 4.818l27.97-6.771a6.55 6.55 0 0 0 4.818-7.896c-.218-.906-.629-1.754-1.205-2.486-1.58-2.022-4.196-2.933-6.691-2.332l-27.97 6.771c-3.51.85-5.667 4.385-4.818 7.896z"/><path d="M403.862 181.354l27.398 5.214 8.75 1.666a3.69 3.69 0 0 0 2.938-.711l7.027-5.486-2.466.597-5.206 4.061c-.595.461-1.359.646-2.099.508l-6.479-1.232-27.398-5.214zm81.838-28.539l.267 1.102 1.215-.945zm-81.838 28.539l27.398 5.214 8.75 1.666a3.69 3.69 0 0 0 2.938-.711l7.027-5.486-2.466.597-5.206 4.061c-.595.461-1.359.646-2.099.508l-6.479-1.232-27.398-5.214zm0 0l27.398 5.214 8.75 1.666a3.69 3.69 0 0 0 2.938-.711l7.027-5.486-2.466.597-5.206 4.061c-.595.461-1.359.646-2.099.508l-6.479-1.232-27.398-5.214zm-89.263-12.787l30.916 127.71c.478 1.965 2.456 3.172 4.422 2.698l223.761-54.168c1.965-.478 3.172-2.456 2.698-4.422l-30.916-127.71a3.64 3.64 0 0 0-2.358-2.595c-.428-.151-.881-.219-1.334-.201a3.46 3.46 0 0 0-1.514.398 3.18 3.18 0 0 0-.607.377l-18.364 14.34-26.67 20.833-8.935 6.979.002.008-.008.002-32.766 25.578-5.417 4.239-5.206 4.061c-.595.461-1.359.646-2.099.508l-6.479-1.232-27.398-5.214-27.422-5.216-60.061-11.43a3.59 3.59 0 0 0-1.547.033 3.67 3.67 0 0 0-1.788 1.036 4.11 4.11 0 0 0-.493.651 3.64 3.64 0 0 0-.417 2.735zm89.263 12.787l27.398 5.214 8.75 1.666a3.69 3.69 0 0 0 2.938-.711l7.027-5.486-2.466.597-5.206 4.061c-.595.461-1.359.646-2.099.508l-6.479-1.232-27.398-5.214zm0 0l27.398 5.214 8.75 1.666a3.69 3.69 0 0 0 2.938-.711l7.027-5.486-2.466.597-5.206 4.061c-.595.461-1.359.646-2.099.508l-6.479-1.232-27.398-5.214zm0 0l27.398 5.214 8.75 1.666a3.69 3.69 0 0 0 2.938-.711l7.027-5.486-2.466.597-5.206 4.061c-.595.461-1.359.646-2.099.508l-6.479-1.232-27.398-5.214z"/></g><path d="M403.862 181.354l27.398 5.214 8.75 1.666a3.69 3.69 0 0 0 2.938-.711l7.027-5.486-2.466.597-5.206 4.061c-.595.461-1.359.646-2.099.508l-6.479-1.232-27.398-5.214zm81.838-28.539l.267 1.102 1.215-.945zm-81.838 28.539l27.398 5.214 8.75 1.666a3.69 3.69 0 0 0 2.938-.711l7.027-5.486-2.466.597-5.206 4.061c-.595.461-1.359.646-2.099.508l-6.479-1.232-27.398-5.214zm0 0l27.398 5.214 8.75 1.666a3.69 3.69 0 0 0 2.938-.711l7.027-5.486-2.466.597-5.206 4.061c-.595.461-1.359.646-2.099.508l-6.479-1.232-27.398-5.214zm-87.827-15.443l.136.102c.023-.037.062-.071.092-.11.615-.641 1.512-.929 2.385-.768l59.686 11.354 25.528 4.865 27.398 5.214 8.75 1.666a3.69 3.69 0 0 0 2.938-.711l7.027-5.486-2.466.597-5.206 4.061c-.595.461-1.359.646-2.099.508l-6.479-1.232-27.398-5.214-27.422-5.216-60.061-11.43a3.59 3.59 0 0 0-1.547.033zm-1.436 2.657l30.916 127.71c.478 1.965 2.456 3.172 4.422 2.698l223.761-54.168c1.965-.478 3.172-2.456 2.698-4.422l-30.916-127.71a3.64 3.64 0 0 0-2.358-2.595c-.428-.151-.881-.219-1.334-.201a3.46 3.46 0 0 0-1.514.398 3.18 3.18 0 0 0-.607.377l-18.364 14.34-26.67 20.833-8.935 6.979.002.008-.008.002-32.766 25.578-5.417 4.239-5.206 4.061c-.595.461-1.359.646-2.099.508l-6.479-1.232-27.398-5.214-27.422-5.216-60.061-11.43a3.59 3.59 0 0 0-1.547.033 3.67 3.67 0 0 0-1.788 1.036 4.11 4.11 0 0 0-.493.651 3.64 3.64 0 0 0-.417 2.735zm1.02-.247a2.6 2.6 0 0 1 .462-2.191.34.34 0 0 1 .091-.117c.023-.037.062-.071.092-.11.615-.641 1.512-.929 2.385-.768l59.686 11.354 25.528 4.865 27.398 5.214 8.75 1.666a3.69 3.69 0 0 0 2.938-.711l7.027-5.486 4.444-3.472 31.547-24.648 1.215-.945 7.447-5.817 26.518-20.709 19.171-14.972c.291-.227.628-.39.987-.477.1-.025.202-.041.305-.05.09-.016.18-.025.271-.026a2.68 2.68 0 0 1 .901.147c.84.292 1.474.99 1.686 1.853l30.916 127.71a2.62 2.62 0 0 1-1.931 3.165l-223.761 54.168a2.62 2.62 0 0 1-3.158-1.933zm88.244 13.034l27.398 5.214 8.75 1.666a3.69 3.69 0 0 0 2.938-.711l7.027-5.486-2.466.597-5.206 4.061c-.595.461-1.359.646-2.099.508l-6.479-1.232-27.398-5.214zm0 0l27.398 5.214 8.75 1.666a3.69 3.69 0 0 0 2.938-.711l7.027-5.486-2.466.597-5.206 4.061c-.595.461-1.359.646-2.099.508l-6.479-1.232-27.398-5.214zm0 0l27.398 5.214 8.75 1.666a3.69 3.69 0 0 0 2.938-.711l7.027-5.486-2.466.597-5.206 4.061c-.595.461-1.359.646-2.099.508l-6.479-1.232-27.398-5.214z" fill="#3f3d56"/><path d="M515.379 219.717a8.13 8.13 0 0 1 5.981-9.801l28.242-6.837a8.12 8.12 0 0 1 3.821 15.782l-28.242 6.837a8.13 8.13 0 0 1-9.801-5.981z" fill="#f07300"/><circle cx="203.277" cy="189" r="7" fill="#fff"/></svg>