<svg xmlns="http://www.w3.org/2000/svg" width="32" height="32" fill="none" xmlns:v="https://vecta.io/nano"><path d="M6.78 7.322v2.169c0 .271-.271.542-.542.542h-2.17c-.271 0-.542-.271-.542-.542V7.322c0-.271.271-.542.542-.542h2.169c.271 0 .542.271.542.542z" fill="#00aeef"/><path d="M31.729 2.441v27.119c0 1.085-1.085 2.169-2.169 2.169H2.441c-1.085 0-2.169-1.085-2.169-2.169V2.441C.271 1.356 1.356.271 2.441.271h27.119c1.085 0 2.169 1.085 2.169 2.169z" fill="#ecf4f7"/><path d="M21.424 27.39a5.97 5.97 0 0 0 5.966-5.966 5.97 5.97 0 0 0-5.966-5.966 5.97 5.97 0 0 0-5.966 5.966 5.97 5.97 0 0 0 5.966 5.966z" fill="#aab1ba"/><path d="M13.288 7.322v2.169c0 .271-.217.542-.542.542h-2.17c-.271 0-.542-.271-.542-.542V7.322c0-.271.271-.542.542-.542h2.169c.325 0 .542.271.542.542zm-6.508 0v2.169c0 .271-.271.542-.542.542h-2.17c-.271 0-.542-.271-.542-.542V7.322c0-.271.271-.542.542-.542h2.169c.271 0 .542.271.542.542z" fill="#7ee1e6"/><path d="M26.305 8.407v1.085c0 .271-.217.542-.542.542h-.542-2.17-2.169-2.169-.542c-.325 0-.542-.271-.542-.542V8.407 7.322c0-.271.217-.542.542-.542h.542 2.169 2.169 2.17.542c.325 0 .542.271.542.542v1.085h0z" fill="#ff7474"/><path d="M29.559 32H2.441C1.193 32 0 30.807 0 29.559c0-.163.108-.271.271-.271s.271.108.271.271c0 .922.976 1.898 1.898 1.898h27.119c.922 0 1.898-.976 1.898-1.898V2.441c0-.922-.976-1.898-1.898-1.898H2.441c-.922 0-1.898.976-1.898 1.898V27.39c0 .163-.108.271-.271.271S0 27.553 0 27.39V2.441C0 1.193 1.193 0 2.441 0h27.119C30.807 0 32 1.193 32 2.441v27.119C32 30.807 30.807 32 29.559 32zm-8.136-4.339c-2.712 0-5.098-1.736-5.912-4.285-.054-.163.054-.271.163-.325.163-.054.271.054.325.163.705 2.115 2.495 3.58 4.665 3.851-.488-.542-1.139-1.519-1.139-2.929 0-1.79 1.031-2.549 1.519-2.82-.217-.38-.868-1.248-2.332-1.248-2.007 0-3.037 1.519-3.037 1.519-.054.108-.217.163-.325.108s-.217-.163-.217-.271c0-2.712 1.736-5.098 4.285-5.912.163-.054.271.054.325.163s-.054.271-.163.325c-2.115.705-3.58 2.495-3.851 4.665.542-.488 1.519-1.139 2.929-1.139 1.79 0 2.549 1.031 2.82 1.519.38-.217 1.247-.868 1.247-2.332 0-2.007-1.519-3.037-1.519-3.037-.109-.054-.163-.217-.109-.325s.163-.217.271-.217c2.712 0 5.098 1.736 5.912 4.285.054.163-.054.271-.163.325-.163.054-.271-.054-.325-.163-.705-2.115-2.495-3.58-4.664-3.851.488.542 1.139 1.519 1.139 2.929 0 1.79-1.03 2.549-1.519 2.82.217.38.868 1.247 2.332 1.247 2.007 0 3.037-1.519 3.037-1.519.054-.109.163-.163.325-.109.109.054.217.163.217.271 0 2.712-1.736 5.098-4.285 5.912-.163.054-.271-.054-.325-.163-.054-.163.054-.271.163-.325 2.115-.705 3.58-2.495 3.851-4.664-.542.488-1.519 1.139-2.929 1.139-1.79 0-2.549-1.03-2.82-1.519-.38.217-1.248.868-1.248 2.332a3.84 3.84 0 0 0 1.519 3.037c.108.054.163.163.108.325s-.163.217-.271.217zm-10.305-1.085c-.163 0-.271-.108-.271-.271v-9.763c0-.163.108-.271.271-.271s.271.108.271.271v9.763c0 .163-.108.271-.271.271zm-2.169 0c-.163 0-.271-.108-.271-.271v-9.763c0-.163.108-.271.271-.271s.271.108.271.271v9.763c0 .163-.108.271-.271.271zm-3.254 0c-.163 0-.271-.108-.271-.271v-9.763c0-.163.108-.271.271-.271s.271.108.271.271v1.898h.814c.163 0 .271.108.271.271s-.108.271-.271.271h-.814v1.627h.814c.163 0 .271.108.271.271s-.108.271-.271.271h-.814v1.627h.814c.163 0 .271.109.271.271s-.108.271-.271.271h-.814v1.627h.814c.163 0 .271.108.271.271s-.108.271-.271.271h-.814v.813c0 .163-.109.271-.271.271zm7.593-13.017H3.525c-.163 0-.271-.109-.271-.271s.108-.271.271-.271h9.763c.163 0 .271.109.271.271s-.108.271-.271.271zm11.932-2.17c-.163 0-.271-.108-.271-.271v-.814h-1.627v.814c0 .163-.108.271-.271.271s-.271-.108-.271-.271v-.814h-1.627v.814c0 .163-.108.271-.271.271s-.271-.108-.271-.271v-.814h-1.627v.814c0 .163-.108.271-.271.271s-.271-.108-.271-.271v-.814h-.271c-.434 0-.814-.38-.814-.814v-.814h-.814c-.163 0-.271-.108-.271-.271s.108-.271.271-.271h.814v-.814c0-.434.38-.814.814-.814h.271v-.813c0-.163.108-.271.271-.271s.271.108.271.271v.814h1.627v-.814c0-.163.108-.271.271-.271s.271.108.271.271v.814h1.627v-.814c0-.163.109-.271.271-.271s.271.108.271.271v.814h1.627v-.814c0-.163.108-.271.271-.271s.271.108.271.271v.814h.271c.434 0 .814.38.814.814v.814h.814c.163 0 .271.108.271.271s-.108.271-.271.271h-.814v.814c0 .434-.38.814-.814.814h-.271v.814c0 .163-.109.271-.271.271zm-7.322-2.983v1.085c0 .163.108.271.271.271h7.593c.163 0 .271-.108.271-.271v-2.17c0-.163-.108-.271-.271-.271H18.17c-.163 0-.271.109-.271.271v1.085zm-5.153 1.898h-2.169c-.434 0-.814-.38-.814-.814V7.322c0-.434.38-.814.814-.814h2.169c.434 0 .814.38.814.814v2.169c0 .434-.38.814-.814.814zm-2.169-3.254c-.163 0-.271.109-.271.271v2.169c0 .163.109.271.271.271h2.169c.163 0 .271-.108.271-.271V7.322c0-.163-.108-.271-.271-.271h-2.169zm-4.339 3.254H4.068c-.434 0-.814-.38-.814-.814V7.322c0-.434.38-.814.814-.814h2.169c.434 0 .814.38.814.814v2.169c0 .434-.38.814-.814.814zM4.068 7.051c-.163 0-.271.109-.271.271v2.169c0 .163.108.271.271.271h2.169c.163 0 .271-.108.271-.271V7.322c0-.163-.109-.271-.271-.271H4.068z" fill="#51565f"/></svg>