<svg xmlns="http://www.w3.org/2000/svg" width="32" height="32" fill="none" xmlns:v="https://vecta.io/nano"><path d="M4.965 15.448h2.207v-2.207H4.965v2.207zm19.863 0h2.207v-2.207h-2.207v2.207zm1.103-11.034a1.99 1.99 0 0 1-1.104-.331v2.538h2.207V4.083a1.99 1.99 0 0 1-1.103.331zm-19.862 0a1.99 1.99 0 0 1-1.103-.331v2.538h2.207V4.083a1.99 1.99 0 0 1-1.103.331z" fill="#6b4841"/><path d="M0 13.241h32V6.621H0v6.621z" fill="#556080"/><path d="M8.276 2.207C8.276.993 7.283 0 6.069 0S3.862.993 3.862 2.207s.993 2.207 2.207 2.207 2.207-.993 2.207-2.207z" fill="#e15649"/><path d="M4.965 32h2.207v-9.931H4.965V32zm19.863 0h2.207v-9.931h-2.207V32z" fill="#6b4841"/><path d="M7.172 29.241h17.655v-3.31H7.172v3.31z" fill="#4c2c28"/><path d="M4.248 6.621L0 10.869v2.372h5.462l6.621-6.621H4.248zm8.993 6.62h7.779l6.621-6.621h-7.779l-6.621 6.621z" fill="#ecba16"/><path d="M21.021 13.241H28.8l3.145-3.145V6.621h-4.359l-6.565 6.621z" fill="#556080"/><path d="M32 13.241v-3.145l-3.145 3.145H32z" fill="#ecba16"/><path d="M0 22.069h32v-6.621H0v6.621z" fill="#556080"/><path d="M4.248 15.448L0 19.697v2.372h5.462l6.621-6.621H4.248h0zm8.993 6.621h7.779l6.621-6.621h-7.779l-6.621 6.621z" fill="#ecba16"/><path d="M21.021 22.069H28.8l3.145-3.145v-3.476h-4.359l-6.565 6.621z" fill="#556080"/><path d="M32 22.069v-3.145l-3.145 3.145H32z" fill="#ecba16"/><path d="M23.724 2.207C23.724.993 24.717 0 25.931 0s2.207.993 2.207 2.207-.993 2.207-2.207 2.207-2.207-.993-2.207-2.207z" fill="#e15649"/></svg>