<svg xmlns="http://www.w3.org/2000/svg" xmlns:xlink="http://www.w3.org/1999/xlink" width="32" height="32" fill="none" xmlns:v="https://vecta.io/nano"><path d="M16 0H1.655v32H16h14.345V0H16z" fill="#bdc3c7"/><path d="M8.828 6.976a.55.55 0 0 1-.552-.552V4.296a.551.551 0 1 1 1.103 0v2.128a.55.55 0 0 1-.552.552zm0 5.32a.55.55 0 0 1-.552-.552V9.616a.551.551 0 1 1 1.103 0v2.129a.55.55 0 0 1-.552.552zm0 5.32a.55.55 0 0 1-.552-.552v-2.127a.551.551 0 1 1 1.103 0v2.127a.55.55 0 0 1-.552.552zm0 5.321a.55.55 0 0 1-.552-.552v-2.129a.551.551 0 1 1 1.103 0v2.129a.55.55 0 0 1-.552.552zm0 5.32a.55.55 0 0 1-.552-.552v-2.128a.551.551 0 1 1 1.103 0v2.128a.55.55 0 0 1-.552.552zM23.172 6.976a.55.55 0 0 1-.552-.552V4.296a.552.552 0 1 1 1.104 0v2.128a.55.55 0 0 1-.552.552zm0 5.32a.55.55 0 0 1-.552-.552V9.616a.552.552 0 1 1 1.104 0v2.129a.55.55 0 0 1-.552.552zm0 5.32a.55.55 0 0 1-.552-.552v-2.127a.552.552 0 1 1 1.104 0v2.127a.55.55 0 0 1-.552.552zm0 5.321a.55.55 0 0 1-.552-.552v-2.129a.552.552 0 1 1 1.104 0v2.129a.55.55 0 0 1-.552.552zm0 5.32a.55.55 0 0 1-.552-.552v-2.128a.552.552 0 1 1 1.104 0v2.128a.55.55 0 0 1-.552.552z" fill="#f07300"/><g fill="#a0a5a8"><use xlink:href="#B"/><use xlink:href="#B" y="2.206"/><use xlink:href="#B" y="4.413"/><use xlink:href="#B" y="6.62"/><use xlink:href="#C"/><use xlink:href="#B" y="11.034"/><use xlink:href="#C" y="4.414"/><use xlink:href="#C" y="6.621"/><use xlink:href="#B" y="17.655"/><use xlink:href="#C" y="11.035"/><use xlink:href="#C" y="13.241"/><use xlink:href="#C" y="15.448"/><use xlink:href="#C" y="17.655"/><use xlink:href="#B" x="-3.31"/><use xlink:href="#B" x="-3.31" y="2.206"/><use xlink:href="#B" x="-3.31" y="4.413"/><use xlink:href="#B" x="-3.31" y="6.62"/><use xlink:href="#C" x="-3.31"/><use xlink:href="#B" x="-3.31" y="11.034"/><use xlink:href="#C" x="-3.31" y="4.414"/><use xlink:href="#C" x="-3.31" y="6.621"/><use xlink:href="#B" x="-3.31" y="17.655"/><use xlink:href="#C" x="-3.31" y="11.035"/><use xlink:href="#C" x="-3.31" y="13.241"/><use xlink:href="#C" x="-3.31" y="15.448"/><use xlink:href="#C" x="-3.31" y="17.655"/><path d="M14.897 32h2.207V0h-2.207v32z"/></g><defs ><path id="B" d="M18.207 3.311h-1.103a.55.55 0 1 1 0-1.103h1.103a.55.55 0 1 1 0 1.103z"/><path id="C" d="M18.207 12.138h-1.103a.55.55 0 1 1 0-1.104h1.103a.55.55 0 1 1 0 1.104z"/></defs></svg>