<svg xmlns="http://www.w3.org/2000/svg" xmlns:xlink="http://www.w3.org/1999/xlink" width="33" height="32" fill="none" xmlns:v="https://vecta.io/nano"><g clip-path="url(#A)"><g fill="#f07300"><use xlink:href="#B"/><path d="M9.4.026c.463 0 .875.36.875.823v30.302c0 .463-.412.823-.823.823m4.424-.823c0 .412-.36.772-.772.772s-.772-.36-.772-.772V.797c0-.412.36-.772.772-.772s.772.36.772.772v30.354z"/><path d="M13.002.026c.412 0 .875.36.875.823v30.302c0 .463-.412.823-.875.823m7.562-.823c0 .412-.36.772-.772.772s-.772-.36-.772-.772V.797c0-.412.36-.772.772-.772s.772.36.772.772v30.354zm3.602 0c0 .412-.36.772-.772.772s-.772-.36-.772-.772V.797c0-.412.36-.772.772-.772s.772.36.772.772v30.354z"/><use xlink:href="#C"/><path d="M19.844.026c.463 0 .72.36.72.823v30.302c0 .463-.309.823-.772.823m-2.314-.823c0 .412-.36.772-.772.772s-.772-.36-.772-.772V.797c0-.412.36-.772.772-.772s.772.36.772.772v30.354z"/><path d="M16.757.026c.463 0 .72.36.72.823v30.302c0 .463-.309.823-.772.823"/><path d="M1.323 9.801C.86 9.801.5 9.492.5 9.029s.36-.772.823-.772h30.302c.463 0 .823.309.823.772s-.36.772-.823.772H1.323z"/><path d="M32.397 8.926c0 .463-.36.875-.823.875H1.323C.86 9.801.5 9.389.5 8.977"/><use xlink:href="#D"/><path d="M32.397 12.527c0 .463-.36.875-.823.875H1.323c-.463 0-.823-.412-.823-.875m32 3.55c0 .412-.36.772-.772.772H1.375c-.412 0-.772-.36-.772-.772s.36-.772.772-.772h30.354c.412 0 .772.36.772.772z"/><path d="M32.5 15.974c0 .463-.36.875-.823.875H1.426c-.463 0-.823-.412-.823-.875m31.794 3.344c0 .412-.36.772-.772.772H1.272c-.412 0-.772-.36-.772-.772s.36-.772.772-.772h30.354c.412 0 .772.36.772.772z"/><path d="M32.397 19.421c0 .463-.36.669-.823.669H1.323c-.463 0-.823-.309-.823-.772m.823 4.373c-.463 0-.823-.309-.823-.772s.36-.772.823-.772h30.302c.463 0 .823.309.823.772s-.36.772-.823.772H1.323z"/><path d="M32.397 22.971c0 .463-.36.72-.823.72H1.323c-.463 0-.823-.309-.823-.772"/></g><path d="M26.738 24.566c0 .926-.772 1.698-1.698 1.698H8.371c-.926 0-1.698-.772-1.698-1.698V7.897c0-.926.772-1.698 1.698-1.698H25.04c.926 0 1.698.772 1.698 1.698v16.669z" fill="#363f3e"/><path d="M6.674 7.897c0-.926.772-1.698 1.698-1.698H25.04c.926 0 1.698.772 1.698 1.698v16.669c0 .926-.772 1.698-1.698 1.698" fill="#000"/><path d="M23.137 21.582c0 .617-.463 1.08-1.08 1.08H11.355c-.617 0-1.08-.463-1.08-1.08V10.881c0-.617.463-1.08 1.08-1.08h10.701c.617 0 1.08.463 1.08 1.08v10.701h0z" fill="#495150"/><path d="M10.275 10.881c0-.617.463-1.08 1.08-1.08h10.701c.617 0 1.08.463 1.08 1.08v10.701c0 .617-.463 1.08-1.08 1.08" fill="#393f3e"/><g fill="#f07300"><path d="M15.214 15.511c.515-.36.772-.823.772-1.389 0-.875-.617-1.698-2.006-1.698-.72 0-1.389.257-1.749.515-.103.051-.103.206-.103.309l.206.617c.051.051.103.154.154.154s.154 0 .206-.051c.257-.154.669-.36 1.08-.36.515 0 .823.206.823.669 0 .566-.669.772-1.132.772h-.463c-.154 0-.206.154-.206.309v.617c0 .154.052.103.206.103h.463c.206 0 1.338.103 1.338 1.08 0 .103 0 .463-.257.669-.206.206-.514.309-.875.309-.514 0-1.029-.206-1.235-.36-.051-.051-.154-.051-.206 0-.051 0-.154.103-.154.154l-.206.669c-.051.103 0 .206.103.309.309.206.978.463 1.749.463 1.698 0 2.469-1.08 2.469-2.109 0-.875-.36-1.441-.977-1.749z"/><path d="M15.986 14.071c0-.875-.617-1.698-2.006-1.698-.669 0-1.338.257-1.698.515l.823.823c.206-.103.463-.154.72-.154.515 0 .823.257.823.669a.62.62 0 0 1-.412.617l1.955 1.955c-.103-.566-.463-1.029-.977-1.286.463-.36.772-.875.772-1.44zm4.681 3.961h-2.161l.052-.103c1.235-1.183 2.212-2.264 2.212-3.498 0-1.029-.669-2.058-2.109-2.058-.72 0-1.389.257-1.904.669-.103.051-.103.206-.051.309l.257.566.154.154c.103 0 .154 0 .206-.052.206-.154.617-.463 1.132-.463.669 0 .978.309.978.926 0 .823-.669 1.543-2.212 3.035l-.669.617c-.051.051-.103.103-.103.154v.514c0 .154.154.206.309.206h3.91c.154 0 .412-.051.412-.206v-.669c0-.103-.257-.103-.412-.103z"/></g></g><defs><clipPath id="A"><path fill="#fff" transform="translate(.5)" d="M0 0h32v32H0z"/></clipPath><path id="B" d="M10.275 31.151c0 .412-.36.772-.772.772s-.772-.36-.772-.772V.797c0-.412.36-.772.772-.772s.772.36.772.772v30.354z"/><path id="C" d="M23.445.026c.463 0 .72.36.72.823v30.302c0 .463-.309.823-.772.823"/><path id="D" d="M32.397 12.63c0 .412-.36.772-.772.772H1.272c-.412 0-.772-.36-.772-.772s.36-.772.772-.772h30.354c.412 0 .772.36.772.772z"/></defs></svg>