<svg xmlns="http://www.w3.org/2000/svg" width="32" height="32" fill="none" xmlns:v="https://vecta.io/nano"><path d="M13.333 14.886a1.99 1.99 0 0 1-.667.114 2 2 0 1 1 0-4 1.99 1.99 0 0 1 .667.114V6.667H8.552a2 2 0 0 1-1.886 2.667 2 2 0 0 1-1.886-2.667H.666v12.667h4.448C5.04 19.542 5 19.767 5 20a2 2 0 1 0 4 0c0-.233-.041-.458-.114-.667h4.448v-4.447h0 0z" fill="#8cc153"/><path d="M25.334 27.667a2 2 0 1 1 0-4 1.99 1.99 0 0 1 .666.114v-4.448H13.333V32H26v-4.447c-.209.073-.434.114-.666.114z" fill="#37bc9b"/><path d="M14 23.667c-.234 0-.458.04-.667.114v-4.448H.666v4.448a1.99 1.99 0 0 1 .667-.114 2 2 0 1 1 0 4c-.234 0-.458-.041-.667-.114V32h12.667v-4.447c.209.073.433.114.667.114a2 2 0 0 0 0-4z" fill="#4a89dc"/><path d="M31.334 9.552c-.209.074-.434.114-.668.114a2 2 0 1 1 0-4c.234 0 .459.041.668.114V1.334H18.666v4.447c-.208-.074-.432-.114-.666-.114a2 2 0 1 0 0 4c.234 0 .458-.04.666-.114V14h4.448a2.01 2.01 0 0 0-.114.667 2 2 0 1 0 4 0c0-.234-.041-.458-.114-.667h4.448V9.552h0z" fill="#f6bb42"/><path d="M25.334 26.333a2 2 0 1 1 0-4 2.01 2.01 0 0 1 .666.114V18H13.333v12.667H26v-4.448c-.209.074-.434.114-.666.114z" fill="#48cfad"/><path d="M14 22.333c-.234 0-.458.041-.667.114V18H.666v4.447a2.01 2.01 0 0 1 .667-.114 2 2 0 1 1 0 4 1.99 1.99 0 0 1-.667-.114v4.448h12.667v-4.448c.209.074.433.114.667.114a2 2 0 1 0 0-4z" fill="#5d9cec"/><path d="M31.334 8.219c-.209.074-.434.114-.668.114a2 2 0 1 1 0-4c.234 0 .459.041.668.114V0H18.666v4.448c-.208-.074-.432-.114-.666-.114a2 2 0 1 0 0 4c.234 0 .458-.04.666-.114v4.448h4.448c-.073.208-.114.433-.114.666a2 2 0 1 0 4 0 2.01 2.01 0 0 0-.114-.666h4.448V8.219h0z" fill="#ffce54"/><path d="M13.333 13.553c-.209.073-.433.114-.667.114a2 2 0 1 1 0-4 2 2 0 0 1 .667.114V5.334H8.552c.074.208.114.433.114.666a2 2 0 1 1-4 0c0-.234.041-.458.114-.666H.666V18h4.448c-.074.209-.114.433-.114.667a2 2 0 1 0 4 0c0-.234-.041-.458-.114-.667h4.448v-4.447h0z" fill="#a0d468"/></svg>