<svg xmlns="http://www.w3.org/2000/svg" xmlns:xlink="http://www.w3.org/1999/xlink" width="32" height="32" fill="none" xmlns:v="https://vecta.io/nano"><path d="M26 2.5H6C4.622 2.5 3.5 3.622 3.5 5v24.5C3.5 30.878 4.622 32 6 32h20c1.378 0 2.5-1.122 2.5-2.5V5c0-1.378-1.122-2.5-2.5-2.5z" fill="#996459"/><path d="M25.975 4.5c.29 0 .525.233.525.52V29.48c0 .287-.235.52-.525.52H6.025c-.29 0-.525-.233-.525-.52V5.02c0-.287.235-.52.525-.52h19.95z" fill="#fff"/><use xlink:href="#B" fill="#b4b6bc"/><path d="M16.5 10H15a.5.5 0 1 1 0-1h1.5a.5.5 0 1 1 0 1z" fill="#5c546a"/><path d="M22.5 12H15a.5.5 0 1 1 0-1h7.5a.5.5 0 1 1 0 1z" fill="#868491"/><path d="M20 17h-5a.5.5 0 1 1 0-1h5a.5.5 0 1 1 0 1z" fill="#5c546a"/><path d="M22.5 19H15a.5.5 0 1 1 0-1h7.5a.5.5 0 1 1 0 1z" fill="#868491"/><path d="M17 23.5h-2a.5.5 0 1 1 0-1h2a.5.5 0 1 1 0 1z" fill="#5c546a"/><path d="M22.5 25.5H15a.5.5 0 1 1 0-1h7.5a.5.5 0 1 1 0 1zM18 2.5a.5.5 0 0 1-.5-.5v-.5A.5.5 0 0 0 17 1h-2a.5.5 0 0 0-.5.5V2a.5.5 0 1 1-1 0v-.5A1.5 1.5 0 0 1 15 0h2a1.5 1.5 0 0 1 1.5 1.5V2a.5.5 0 0 1-.5.5z" fill="#868491"/><g fill="#b4b6bc"><path d="M21.5 1.5h-11a.5.5 0 0 0-.5.5v1.5A2.5 2.5 0 0 0 12.5 6h7A2.5 2.5 0 0 0 22 3.5V2a.5.5 0 0 0-.5-.5z"/><use xlink:href="#B" y="6.5"/><use xlink:href="#B" y="13"/></g><path d="M11.5 18.5a.5.5 0 0 1-.354-.146l-1-1a.5.5 0 0 1 .707-.707l.646.646 2.146-2.146a.5.5 0 0 1 .707.707l-2.5 2.5a.5.5 0 0 1-.354.146z" fill="#ff4f19"/><defs ><path id="B" d="M12.5 13.5h-3a1 1 0 0 1-1-1v-3a1 1 0 0 1 1-1h3a1 1 0 0 1 1 1v3a1 1 0 0 1-1 1zm-3-4v3h3.001l-.001-3h-3z"/></defs></svg>