<svg xmlns="http://www.w3.org/2000/svg" width="32" height="32" fill="none" xmlns:v="https://vecta.io/nano"><g clip-path="url(#A)"><path d="M27.071 4.194l-14.49 14.49a1 1 0 0 1-1.414 0l-6.238-6.238L0 17.376l9.409 9.409c.654.654 1.54 1.021 2.464 1.021s1.811-.367 2.464-1.021L32 9.123l-4.929-4.929z" fill="#a5eb78"/><g opacity=".1"><path opacity=".1" d="M30.37 7.493L11.724 26.139c-.516.516-1.165.868-1.865 1.024.585.415 1.288.643 2.015.643.924 0 1.811-.367 2.464-1.021L32 9.123l-1.63-1.63z" fill="#000"/></g></g><defs><clipPath id="A"><path fill="#fff" d="M0 0h32v32H0z"/></clipPath></defs></svg>