<svg xmlns="http://www.w3.org/2000/svg" width="206" height="23" fill="#fff" xmlns:v="https://vecta.io/nano"><path d="M191.824.456c-1.688.456-3.203 1.786-4.345 3.801-1.416 2.547-1.639 4.105-1.639 11.821v6.766h1.217 1.216l.1-6.538c.099-7.298.223-7.982 1.812-10.111 1.192-1.634 1.714-1.786 5.464-1.786 3.054 0 3.302.076 4.345 1.026.696.608 1.366 1.634 1.739 2.661.571 1.52.621 2.014.695 8.21l.099 6.576 1.267-.114 1.291-.114v-6.652c0-7.754-.248-9.274-2.036-12.201-1.664-2.737-3.03-3.459-6.779-3.611-1.714-.076-3.725.038-4.446.266zm-27.142-.19c-.124.152-.199 1.102-.199 2.091v1.786l6.283.152c6.084.114 6.283.152 7.301 1.026.919.798 2.309 3.193 2.309 3.953 0 .114-3.104.266-6.903.342l-6.928.114-.919 1.102c-2.335 2.699-2.186 8.286.273 10.871.894.95.968.95 6.382.95 5.24 0 5.538-.038 6.655-.874 4.718-3.611 5.761-13.075 2.012-18.359-2.136-3.003-2.583-3.155-9.76-3.307-3.476-.076-6.407 0-6.506.152zM179.954 14.9c-.62 1.634-1.663 2.889-2.756 3.383-.497.19-2.831.38-5.165.38-3.7 0-4.321-.076-4.768-.684-.77-1.026-.869-2.091-.273-3.231l.496-1.026h6.457 6.456l-.447 1.178zm-48.002-7.754c0 6.348.075 7.336.522 8.856.646 2.205 2.011 4.371 3.576 5.625 1.117.912 1.515 1.026 3.849 1.026 2.93-.038 4.221-.684 5.91-3.117l.869-1.292.894 1.33c1.54 2.281 3.03 3.079 5.737 3.079 1.316 0 2.756-.228 3.302-.494 1.59-.874 3.278-3.231 4.048-5.663.72-2.167.72-2.281.72-9.236V.228h-1.241-1.242l-.124 6.652c-.124 7.26-.298 8.134-1.714 9.997-1.092 1.406-2.334 1.901-4.221 1.71-1.887-.228-3.079-1.178-4.023-3.307-.571-1.216-.596-1.71-.72-8.172l-.124-6.88-1.292-.114L145.362 0v5.815c0 3.193-.124 6.5-.273 7.336-.695 3.839-2.607 5.701-5.587 5.435-2.211-.228-3.527-1.368-4.371-3.839-.497-1.444-.571-2.242-.646-8.172l-.099-6.538h-1.217-1.217v7.108zM112.583.684c-2.186 1.254-3.427 6.082-2.384 9.16 1.117 3.269 3.054 4.067 9.213 3.725 2.557-.114 4.892-.076 5.463.114 1.639.608 2.136 2.585 1.043 4.143-.571.836-.72.836-8.195.836h-7.624v2.09 2.091h7.699c6.382 0 7.872-.114 8.617-.57 1.241-.798 1.788-1.596 2.334-3.421.844-2.851.422-6.233-.993-7.754-1.441-1.52-2.409-1.748-8.369-1.748-5.314 0-5.786-.038-6.283-.722-.67-.912-.67-2.585 0-3.497.571-.798 0-.76 10.231-.836l5.637-.076v-1.9-1.9l-7.996.038c-4.42 0-8.195.114-8.393.228zM94.405.494c-.224.266-2.434 4.941-4.917 10.377L84.472 21.78 84 22.844h1.614 1.639l1.068-2.243 1.043-2.281h6.73l6.729-.038 1.043 2.281 1.043 2.281h1.614c.87 0 1.59-.076 1.59-.19 0-.266-9.437-20.791-10.008-21.78-.422-.684-.77-.836-1.912-.836-.77 0-1.564.228-1.788.456zm4.172 8.514c1.167 2.623 2.086 4.827 2.036 4.941-.074.076-2.16.114-4.644.076l-4.52-.114 2.285-5.017c1.267-2.775 2.384-4.941 2.483-4.827.124.114 1.192 2.319 2.359 4.941zm-30.038 2.623v2.09l6.159-.076 6.134-.114.075-2.015.075-1.976h-6.208-6.233v2.091zM55.601.418c-2.334.608-4.396 3.003-5.488 6.424-.447 1.368-.571 2.395-.571 4.599.025 4.713 1.391 8.134 4.048 10.149l1.416 1.064 6.904.114 6.879.114v-2.091-2.128h-6.332c-6.779 0-7.475-.152-8.791-2.015-.77-1.102-1.515-3.573-1.515-5.131 0-1.406.571-3.687 1.192-4.751.224-.418.869-1.102 1.415-1.52.919-.76 1.415-.836 7.524-.95l6.531-.152-.075-1.938-.075-1.977-5.96-.038c-3.278-.038-6.481.076-7.102.228zm-24.684.19c-4.296 1.748-4.097 11.213.273 12.733.521.19 3.501.38 6.63.38 5.289 0 5.662.038 6.134.76.695 1.064.621 2.433-.149 3.383-.646.76-.944.798-8.195.798h-7.549v2.128 2.091l8.021-.114c7.549-.114 8.046-.152 8.865-.912 2.359-2.09 2.93-6.88 1.167-9.92-1.316-2.281-1.713-2.395-8.245-2.395-5.761 0-6.63-.152-7.127-1.292-.372-.798-.199-2.395.323-3.117.497-.684 1.068-.722 8.22-.836l7.673-.114-.075-1.977L46.81.228 39.484.152c-5.488-.038-7.649.076-8.567.456zM22.275.266c-.099.152-.174 5.283-.174 11.441v11.137h1.366 1.366l-.05-11.327L24.709.228 23.591.114c-.621-.076-1.217 0-1.316.152zM.174.266C.074.418 0 5.549 0 11.707v11.137h1.366 1.366v-4.561-4.561h4.296 4.296l2.086 4.561 2.086 4.561h1.564c.869 0 1.565-.114 1.565-.228s-.844-2.053-1.863-4.333L14.9 13.988c0-.114.497-.38 1.117-.608 1.366-.532 2.732-2.319 3.129-4.105.447-2.053.174-4.789-.646-6.424C17.234.304 16.936.228 8.195.114 3.874.038.273.114.174.266zm15.943 4.865c.522.722.695 2.319.323 3.117-.497 1.14-1.366 1.292-7.475 1.292H2.732V7.146c0-1.33.075-2.547.174-2.699s3.005-.228 6.432-.152c5.736.114 6.308.19 6.779.836z"/></svg>