<svg width="253" height="169" xmlns="http://www.w3.org/2000/svg" xmlns:xlink="http://www.w3.org/1999/xlink" stroke-linejoin="round" stroke-linecap="round" stroke="#000" fill-rule="evenodd" fill="#fff">

 <symbol overflow="visible" id="A">
  <g id="svg_1" stroke="#00979c">
   <path id="svg_2" stroke-width="21.279" fill="none" d="m58.832,5.9c-28.508,0 -51.618,22.23 -51.618,49.66s23.1,49.652 51.618,49.652c67.384,3.548 60.292,-99.312 131.222,-99.312c28.508,0 51.618,22.23 51.618,49.652s-23.1,49.652 -51.618,49.652c-67.384,3.556 -60.28,-99.304 -131.222,-99.304"/>
   <g id="svg_3" fill-rule="nonzero" fill="#00979c">
    <path id="svg_4" stroke-width="7.093" d="m184.404,67.86l0,-11.637l-11.53,0l0,-4.86l11.54,0l0,-11.537l4.916,0l0,11.54l11.54,0l0,4.86l-11.54,0l0,11.634l-4.926,0z"/>
    <path id="svg_5" stroke-width="0.355" d="m238.837,5.646l0,-4.806l-1.83,0l0,-0.84l4.613,0l0,0.838l-1.843,0l0,4.807l-0.94,0.001zm3.415,0l0,-5.646l1.385,0l1.427,4.5l1.378,-4.5l1.358,0l0,5.645l-0.86,0l0,-4.737l-1.455,4.738l-0.852,0l-1.517,-4.807l0,4.807l-0.864,0z"/>
    <path id="svg_6" stroke-width="0.851" d="m27.174,167.798l-2.312,-8.007l-14.64,0l-2.376,8.007l-7.846,0l12.426,-40.56l11.045,0l12.426,40.56l-8.723,0zm-9.536,-33.112l-5.523,18.868l10.98,0l-5.457,-18.868zm43.762,33.112l-5.908,-13.034c-0.557,-1.24 -1.332,-2.177 -2.328,-2.8s-2.167,-0.946 -3.516,-0.947l-1.5,0l0,16.8l-7.898,0l0,-40.56l12.224,0c2.312,0 4.4,0.2 6.293,0.574s3.5,1.02 4.816,1.9s2.35,2.048 3.066,3.476s1.076,3.176 1.076,5.245c0,1.5 -0.225,2.814 -0.674,3.972s-1.08,2.157 -1.894,2.995s-1.782,1.515 -2.906,2.033s-2.35,0.88 -3.676,1.086c1.027,0.207 1.97,0.77 2.825,1.7s1.712,2.25 2.57,3.988l6.7,13.593l-9.27,-0.021zm-1.96,-28.613c0,-1.986 -0.653,-3.414 -1.96,-4.283s-3.264,-1.303 -5.876,-1.303l-3.468,0l0,11.45l3.2,0c1.22,0 2.328,-0.124 3.323,-0.372s1.846,-0.62 2.553,-1.117a5.17,5.17 0 0 0 1.637,-1.846c0.385,-0.734 0.578,-1.577 0.578,-2.53l0.013,0.001zm47.318,7.82c0,3.145 -0.4,6 -1.204,8.565s-2.055,4.753 -3.757,6.564s-3.88,3.207 -6.534,4.2s-5.833,1.474 -9.536,1.474l-10.66,0l0,-40.56l12.427,0c3.2,0 6.02,0.388 8.428,1.164s4.415,1.97 6.02,3.584s2.8,3.662 3.612,6.145s1.204,5.44 1.204,8.876l0,-0.012zm-8.476,0.497c0,-2.193 -0.182,-4.148 -0.546,-5.865s-0.98,-3.17 -1.846,-4.36s-2.028,-2.095 -3.484,-2.715s-3.264,-0.93 -5.426,-0.93l-4.013,0l0,27.775l3.468,0c3.874,0 6.818,-1.117 8.83,-3.352s3.018,-5.75 3.018,-10.55l-0.001,-0.003zm43.592,5.358c0,2.586 -0.36,4.857 -1.076,6.812s-1.745,3.584 -3.082,4.888s-2.97,2.286 -4.896,2.948s-4.088,0.993 -6.486,0.993c-2.697,0 -5,-0.33 -6.935,-0.993s-3.5,-1.614 -4.688,-2.855s-2.066,-2.752 -2.6,-4.53s-0.803,-3.776 -0.803,-6l0,-26.906l7.898,0l0,26.44c0,1.365 0.123,2.576 0.37,3.63s0.674,1.95 1.284,2.684s1.375,1.288 2.296,1.66s2.076,0.56 3.468,0.56c1.306,0 2.408,-0.16 3.307,-0.48s1.648,-0.838 2.248,-1.552s1.05,-1.63 1.35,-2.746s0.45,-2.472 0.45,-4.065l0,-26.13l7.898,0l-0.003,25.642zm7.683,-19.385l0,-6.238l26.52,0l0,6.238l-9.247,0l0,28.023l9.247,0l0,6.3l-26.52,0l0,-6.3l9.247,0l0,-28.023l-9.247,0zm55.16,34.323l-11.238,-24.206l-2.312,-5.214l0,29.42l-7.193,0l0,-40.56l9.697,0l11.462,24.36l2.023,4.748l0,-29.1l7.192,0l0,40.56l-9.631,-0.008zm47.424,-20.45c0,3.683 -0.444,6.858 -1.332,9.527s-2.108,4.862 -3.66,6.58s-3.37,3 -5.458,3.817s-4.32,1.24 -6.694,1.24c-5.523,0 -9.675,-1.774 -12.458,-5.322s-4.174,-8.705 -4.174,-15.47c0,-3.683 0.444,-6.858 1.332,-9.527s2.108,-4.862 3.66,-6.58s3.37,-3 5.458,-3.817s4.318,-1.24 6.694,-1.24c5.523,0 9.675,1.77 12.458,5.307s4.174,8.7 4.174,15.486l0,-0.001zm-8.348,0.372c0,-4.8 -0.664,-8.38 -2,-10.737s-3.5,-3.538 -6.55,-3.538c-1.52,0 -2.815,0.305 -3.885,0.915s-1.953,1.505 -2.65,2.684s-1.204,2.633 -1.525,4.36s-0.482,3.708 -0.482,5.943c0,4.8 0.67,8.38 2.007,10.737s3.516,3.538 6.534,3.538c1.52,0 2.82,-0.305 3.9,-0.915s1.964,-1.505 2.65,-2.684s1.188,-2.633 1.5,-4.36s0.482,-3.708 0.482,-5.943l0.019,0z"/>
    <path id="svg_7" stroke-width="10.011" d="m45.744,55.813l0,-3.95l29.55,0l0,3.95l-29.55,0z"/>
   </g>
  </g>
 </symbol>
 <g>
  <title>Layer 1</title>
  <use transform="matrix(1, 0, 0, 1, 0, 0)" id="svg_8" xlink:href="#A" y="0.5" x="0.5"/>
 </g>
</svg>