<svg width="51.02" height="9.642" xmlns="http://www.w3.org/2000/svg">

 <g>
  <title>Layer 1</title>
  <path id="svg_1" fill="#d21c2e" d="m6.989,1.07l3.903,0l0,-1.074l-3.903,0l0,1.074z"/>
  <path id="svg_2" fill="#231f20" d="m3.735,9.42c-0.208,0.111 -0.58,0.222 -1.078,0.222c-1.598,0 -2.661,-1.184 -2.661,-3.398c0,-2.017 1.116,-3.531 2.9,-3.531a1.69,1.69 0 0 1 0.839,0.196l0,1.171a2.44,2.44 0 0 0 -0.81,-0.151c-0.961,0 -1.457,1.046 -1.457,2.285c0,1.377 0.556,2.216 1.458,2.216c0.272,0 0.594,-0.053 0.809,-0.16l0,1.15m5.702,-0.96l0,-2.374c-0.574,0.008 -1.616,0.166 -1.616,1.338c0,0.761 0.405,1.036 0.73,1.036l0.886,0zm1.454,-0.537c0,0.522 0.032,1.188 0.104,1.635l-2.889,0c-0.965,0 -1.694,-0.801 -1.694,-1.982c0,-1.731 1.462,-2.461 2.986,-2.475l0,-0.119c0,-0.702 -0.275,-1.195 -1.006,-1.195c-0.481,0 -1.032,0.141 -1.396,0.374l0,-1.007c0.331,-0.21 0.897,-0.481 1.717,-0.481c1.734,0 2.178,1.127 2.178,2.56l0,2.691m6.493,0.526l-0.86,0c-0.619,0 -0.978,-0.934 -0.978,-2.279c0,-1.204 0.267,-2.267 1.014,-2.267c0.436,0 0.739,0.479 0.802,1.02a2.67,2.67 0 0 1 0.022,0.415l0,3.111zm1.471,-0.528l-0.003,-7.239l-1.468,0l0,2.702l-0.028,0c-0.216,-0.465 -0.623,-0.732 -1.178,-0.732c-1.088,0 -2.103,1.134 -2.103,3.497c0,2.029 0.731,3.402 2.034,3.402l2.85,0.002c-0.071,-0.447 -0.104,-1.112 -0.104,-1.634m6.445,-2.39c0.011,-1.081 -0.343,-1.723 -0.867,-1.723c-0.641,0 -0.93,0.933 -0.959,1.723l1.826,0zm-1.833,1.051c0.016,1.505 0.715,1.914 1.501,1.914c0.492,0 1.013,-0.111 1.313,-0.239l0,1.062c-0.42,0.198 -0.965,0.317 -1.58,0.317c-1.736,0 -2.668,-1.259 -2.668,-3.344c0,-2.227 1.068,-3.583 2.506,-3.583c1.416,0 2.13,1.28 2.13,3.085l-0.039,0.785l-3.162,0.003m7.862,-2.621l0,5.602l-1.476,0l0,-4.836l-0.06,-1.953l2.91,0c1.122,0 1.79,0.816 1.79,2.378l0,4.411l-1.476,0l0,-4.27c0,-0.673 -0.143,-1.33 -0.785,-1.33l-0.902,-0.001m10.039,5.459c-0.208,0.111 -0.58,0.222 -1.078,0.222c-1.598,0 -2.662,-1.184 -2.662,-3.398c0,-2.017 1.116,-3.531 2.9,-3.531c0.398,0 0.656,0.097 0.84,0.196l0,1.171c-0.146,-0.06 -0.486,-0.151 -0.811,-0.151c-0.961,0 -1.457,1.046 -1.457,2.285c0,1.377 0.556,2.216 1.458,2.216c0.272,0 0.593,-0.053 0.809,-0.16l0,1.15m4.061,-3.89c0.03,-0.79 0.319,-1.723 0.959,-1.723c0.525,0 0.879,0.642 0.867,1.723l-1.826,0zm3.193,0.262c0,-1.806 -0.713,-3.085 -2.129,-3.085c-1.437,0 -2.506,1.356 -2.506,3.583c0,2.085 0.932,3.344 2.668,3.344c0.617,0 1.161,-0.119 1.581,-0.317l0,-1.061c-0.3,0.128 -0.821,0.239 -1.313,0.239c-0.787,0 -1.484,-0.409 -1.5,-1.914l3.161,-0.003c0.023,-0.184 0.038,-0.401 0.038,-0.785m1.507,-5.513c0.488,0 0.886,0.454 0.886,1.012s-0.398,1.011 -0.886,1.011s-0.886,-0.454 -0.886,-1.011s0.396,-1.012 0.886,-1.012zm0.003,1.872c0.408,0 0.714,-0.375 0.714,-0.86s-0.306,-0.86 -0.714,-0.86s-0.719,0.375 -0.719,0.86s0.307,0.86 0.719,0.86zm-0.342,-1.454l0.398,0c0.238,0 0.356,0.109 0.356,0.333c0,0.191 -0.106,0.327 -0.269,0.327l0.295,0.524l-0.179,0l-0.291,-0.524l-0.142,0l0,0.524l-0.169,0l0.001,-1.184zm0.169,0.51l0.201,0c0.131,0 0.214,-0.03 0.214,-0.184c0,-0.135 -0.105,-0.174 -0.214,-0.174l-0.201,0l0,0.358"/>
 </g>
</svg>