<svg xmlns="http://www.w3.org/2000/svg" xmlns:xlink="http://www.w3.org/1999/xlink" width="107" height="27" fill="#fff" fill-rule="evenodd" stroke="#000" stroke-linecap="round" stroke-linejoin="round" xmlns:v="https://vecta.io/nano"><rect id="backgroundrect" width="100%" height="100%" x="0" y="0" fill="none" stroke="none"/><symbol id="A" overflow="visible"><g fill-rule="nonzero" stroke="none" id="svg_1"><path d="M40.627 17.916h-2.45V7.163h2.45v4.357h5.452V7.163h2.45v10.752h-2.45v-4.5h-5.452zm12.345-4.314c0 1.902.6 2.694 2.626 2.694s2.6-.8 2.6-2.694v-6.44h2.448v6.5c.126 1.013-.115 2.037-.68 2.887-.96 1.052-2.353 1.485-4.378 1.485s-3.436-.433-4.392-1.485c-.536-.578-.668-1.525-.668-2.887v-6.5h2.433zm15.683-6.44l4.96 10.753h-2.713l-1.07-2.562h-5.06l-1.037 2.562h-2.603l4.925-10.753zm-3.097 6.276h3.47l-1.767-4.132zm24.644-6.275l-3.6 10.752h-3l-2.47-8.016-2.17 8.027h-2.985L72.1 7.174h2.63l2.7 8.266 2.27-8.266h2.887l2.608 8.266 2.513-8.266zm3.305 4.372h6.777v1.864h-6.8c.013 1.932.84 2.634 2.77 2.634h4.02v1.873H96.14c-1.284.12-2.57-.213-3.632-.943a4.9 4.9 0 0 1-1.782-4.238c0-3.8 1.735-5.57 5.48-5.57h4.067v1.874h-4.02c-1.764-.001-2.655.806-2.755 2.498m8.944-4.364h2.56v10.753h-2.56z" fill="#0a0808" id="svg_2"/><path d="M14.385 19.647c.036-.03.047-.08.028-.123A76.28 76.28 0 0 0 5.118 4.446c-3.673-4.648-2.92 2.77-2.713 5.55a4.91 4.91 0 0 0 1.693 3.346c2.547 2.483 8.715 5.617 10.15 6.326.045.025.102.016.138-.02m-.954 2.124a.14.14 0 0 0-.132-.094v-.002l-10.27.358c1.113 1.986 3 3.528 4.943 3.055 1.348-.337 4.404-2.468 5.4-3.187v-.003c.077-.07.05-.126.05-.126m.164-.924c.05-.08-.04-.15-.04-.15l.001-.004C9.048 17.655.296 12.982.296 12.982a6.08 6.08 0 0 0 3.517 7.51 6.28 6.28 0 0 0 1.964.432c.154.03 6.108.003 7.702-.004.045-.005.085-.032.106-.072M14.269.012c-.448.04-1.654.314-1.654.314-1.593.406-2.863 1.605-3.362 3.17a6.28 6.28 0 0 0 .014 3.257c.907 4.026 5.374 10.644 6.332 12.032.068.068.124.043.124.043.058-.014.098-.068.095-.128h.002C17.296 3.927 14.27 0 14.27 0m3.397 18.824c.056.023.12-.001.148-.055h.001c.986-1.426 5.425-8.007 6.327-12.016.27-1.068.276-2.186.017-3.257a4.77 4.77 0 0 0-3.394-3.17c-1.604-.397-.785-.198-1.617-.315 0 0-3.044 3.918-1.564 18.7h.002c.001.05.032.095.08.112m2.43 2.864s-.1.012-.116.078c-.012.05.003.104.04.14.98.705 3.96 2.8 5.4 3.193 0 0 2.655.904 4.96-3.056l-10.282-.36zm13.02-8.728s-8.73 4.684-13.245 7.73a.14.14 0 0 0-.051.15c.016.056.043.077.106.077v.002l7.886-.02a6.14 6.14 0 0 0 1.768-.408c1.475-.578 2.662-1.714 3.306-3.162a6.21 6.21 0 0 0 .23-4.37m-14.07 6.7c.04.03.095.034.14.01 1.47-.734 7.593-3.847 10.128-6.317a4.95 4.95 0 0 0 1.692-3.361c.185-2.875-2.7-5.535-2.7-5.535a76.21 76.21 0 0 0-9.28 15.038h.003c-.027.055-.016.12.028.164" fill="#e12229" id="svg_3"/></g></symbol><g class="currentLayer" style=""><title>Layer 1</title><use x="0.5" y="0.5" xlink:href="#A" id="svg_4"/></g></svg>