<svg xmlns="http://www.w3.org/2000/svg" xmlns:xlink="http://www.w3.org/1999/xlink" width="67" height="28" fill="#fff" fill-rule="evenodd" stroke="#000" stroke-linecap="round" stroke-linejoin="round" xmlns:v="https://vecta.io/nano"><rect id="backgroundrect" width="100%" height="100%" x="0" y="0" fill="none" stroke="none"/><symbol id="A" overflow="visible"><path d="M0 0v1.752h12.46V0zm14.2 0v1.752h17.752S30.16 0 27.76 0zm21.236 0v1.752h10.74L45.536 0zm18.44 0l-.64 1.752h10.64V0zM0 3.406v1.752h12.46V3.406zm14.2.002v1.75h19.812s-.232-1.348-.634-1.75zm21.236 0v1.75h11.92l-.59-1.75zm17.166 0l-.59 1.75h11.87v-1.75zM3.6 6.812v1.754h5.394V6.812zm14.2 0v1.754h5.4V6.812zm10.64 0v1.754h5.396s.34-.926.34-1.754zm10.592 0v1.754H48.6l-.64-1.754zm12.41 0l-.64 1.754h9.58V6.812zM3.6 10.2v1.752h5.394V10.2zm14.2 0v1.752h13.8s1.152-.9 1.52-1.752zm21.236 0v1.752h5.394V11l.34.974h9.88l.368-.974v.974h5.36v-1.752H50.25l-.54 1.484-.54-1.484zM3.6 13.628v1.752h5.394v-1.752zm14.2 0v1.752h15.3c-.368-.85-1.52-1.752-1.52-1.752zm21.236 0v1.752h5.394v-1.752zm6.376 0l.652 1.752h7.41l.6-1.752zm9.612 0v1.752H60.4v-1.752zM3.6 17.034v1.752h5.394v-1.752zm14.2 0v1.752h5.4v-1.752zm10.64 0v1.752h5.74c0-.826-.34-1.752-.34-1.752zm10.592 0v1.752h5.394v-1.752zm7.6 0l.632 1.752h4.968l.64-1.752zm8.388 0v1.752h5.36v-1.752zM.1 20.44v1.754h12.46V20.44zm14.126 0v1.754h19.2c.404-.4.634-1.754.634-1.754zm21.332 0v1.754h8.88V20.44zm12.31 0l.65 1.754h2.528l.61-1.754zm7.16 0v1.754H64V20.44zM.1 23.848V25.6h12.46v-1.752zm14.126 0v1.75h13.54c2.4 0 4.216-1.75 4.216-1.75zm21.332 0V25.6h8.88v-1.752zm13.54 0l.626 1.746.108.002.636-1.75zm5.928 0V25.6H64v-1.752z" fill="#1f70c1" fill-rule="nonzero" stroke="none" id="svg_1"/></symbol><g class="currentLayer" style=""><title>Layer 1</title><use x="1" y="1" xlink:href="#A" id="svg_2"/></g></svg>