<svg xmlns="http://www.w3.org/2000/svg" xmlns:xlink="http://www.w3.org/1999/xlink" width="92" height="54" fill="#fff" fill-rule="evenodd" stroke="#000" stroke-linecap="round" stroke-linejoin="round" xmlns:v="https://vecta.io/nano"><rect id="backgroundrect" width="100%" height="100%" x="0" y="0" fill="none" stroke="none"/><symbol id="A" overflow="visible"><g fill-rule="nonzero" stroke="none" id="svg_1"><path d="M37.44 35.27v16.863h4.76V35.27zM0 35.24v16.887h4.802V39.014l3.744.014c1.23 0 2.086.3 2.672.93.757.8 1.057 2.1 1.057 4.46v7.703h4.66v-9.317c0-6.66-4.244-7.56-8.388-7.56zm45.115.03v16.863h7.717c4.116 0 5.46-.686 6.902-2.215 1.03-1.072 1.686-3.444 1.686-6.03 0-2.372-.557-4.487-1.543-5.802-1.743-2.358-4.287-2.815-8.088-2.815zm4.716 3.658h2.044c2.972 0 4.887 1.33 4.887 4.787s-1.914 4.812-4.887 4.812h-2.044zm-19.25-3.658l-3.973 13.36-3.8-13.36h-5.145l5.43 16.863h6.86L35.44 35.27zm33.067 16.863h4.76V35.27h-4.76zM76.995 35.27L70.35 52.117h4.678l1.057-2.987h7.86l1 2.972h5.102l-6.702-16.834zm3.087 3.072l2.887 7.888h-5.86z" fill="#000" id="svg_2"/><path d="M38.95 9.432v-2.85l.844-.035c7.8-.246 12.93 6.72 12.93 6.72s-5.524 7.67-11.453 7.67a7.25 7.25 0 0 1-2.305-.37v-8.656c3.044.37 3.66 1.707 5.47 4.75l4.064-3.413S45.527 9.36 40.53 9.36c-.528-.018-1.056.018-1.583.07m0-9.43v4.257l.844-.053c10.857-.377 17.937 8.905 17.937 8.905s-8.128 9.887-16.6 9.887a12.82 12.82 0 0 1-2.182-.194v2.64c.598.07 1.214.123 1.812.123 7.882 0 13.582-4.03 19.106-8.78.915.74 4.662 2.516 5.436 3.3-5.243 4.398-17.47 7.934-24.402 7.934-.646.001-1.292-.035-1.935-.106v3.714h29.965V.002zm0 20.566v2.252c-7.284-1.302-9.307-8.884-9.307-8.884s3.5-3.87 9.307-4.504v2.463h-.019c-3.044-.37-5.436 2.48-5.436 2.48s1.355 4.803 5.454 6.193m-12.93-6.95s4.3-6.37 12.948-7.037v-2.32c-9.566.775-17.836 8.868-17.836 8.868s4.68 13.547 17.822 14.778v-2.463c-9.64-1.196-12.93-11.823-12.93-11.823z" fill="#76b900" id="svg_3"/></g></symbol><g class="currentLayer" style=""><title>Layer 1</title><use x="0.5" y="0.5" xlink:href="#A" id="svg_4"/></g></svg>