<svg xmlns="http://www.w3.org/2000/svg" xmlns:xlink="http://www.w3.org/1999/xlink" width="113" height="39" fill="#fff" fill-rule="evenodd" stroke="#000" stroke-linecap="round" stroke-linejoin="round" xmlns:v="https://vecta.io/nano" style=""><rect id="backgroundrect" width="100%" height="100%" x="0" y="0" fill="none" stroke="none"/><symbol id="A" overflow="visible"><g fill-rule="nonzero" stroke="none" id="svg_1"><path d="M111.815 8.845c1.524 8.735-22.254 20.173-53.116 25.547S1.592 37.04.069 28.302s22.263-20.17 53.12-25.543c30.86-5.38 57.105-2.65 58.624 6.087z" fill="#034ea2" id="svg_2"/><path d="M85.477 24.177h-4.116l-2.858-9.394h-.062l.16 9.394h-2.859V12.729h4.297l2.66 9.082h.062l-.157-9.082h2.863zM30.779 13.802h-.065L29.13 24.297h-3.124l2.144-11.568h5.146l2.146 11.568h-3.113zm13.362 7.77h.062l1.43-8.843h4.718l.25 11.568h-2.89l-.076-10.4h-.06l-1.933 10.4h-2.935l-1.936-10.4h-.062l-.072 10.4h-2.898l.257-11.568h4.72zm-23.006-.54c.113.28.08.64.025.858-.097.384-.358.777-1.126.777-.726 0-1.166-.416-1.166-1.05v-1.12h-3.104l-.002.895c0 2.58 2.03 3.358 4.207 3.358 2.093 0 3.816-.715 4.09-2.643.14-1 .035-1.654-.012-1.9-.488-2.42-4.88-3.145-5.206-4.498a1.52 1.52 0 0 1-.012-.611c.08-.368.333-.775 1.057-.775.675 0 1.075.42 1.075 1.05v.715h2.884v-.812c0-2.52-2.262-2.914-3.9-2.914-2.058 0-3.74.68-4.047 2.562-.083.52-.095.983.025 1.563.506 2.36 4.614 3.046 5.2 4.544zm37.614-.02c.113.278.076.63.025.846-.095.384-.354.77-1.117.77-.715 0-1.152-.416-1.152-1.036l-.002-1.1h-3.07l-.005.883c0 2.553 2.012 3.323 4.165 3.323 2.07 0 3.776-.705 4.047-2.616.14-.992.042-1.637-.01-1.88-.486-2.398-4.83-3.115-5.155-4.456-.056-.23-.04-.474-.012-.6.083-.372.33-.768 1.048-.768.67 0 1.06.407 1.06 1.036v.708h2.863v-.805c0-2.493-2.243-2.884-3.867-2.884-2.035 0-3.702.67-4.003 2.542-.083.513-.093.967.028 1.545.497 2.338 4.565 3.018 5.155 4.5zm9.715 1.554c.802 0 1.052-.555 1.108-.84a2.42 2.42 0 0 0 .028-.442v-8.56h2.925v8.298l-.025.759c-.206 2.16-1.913 2.86-4.038 2.86s-3.837-.7-4.04-2.86c-.01-.11-.03-.548-.025-.76v-8.296h2.923v8.56a2.61 2.61 0 0 0 .028.442 1.05 1.05 0 0 0 1.117.842zm24.132-.123c.837 0 1.13-.53 1.184-.837a2.73 2.73 0 0 0 .025-.44v-1.68h-1.186v-1.688h4.103v3.106l-.042.763c-.192 2.104-2.02 2.856-4.068 2.856s-3.876-.752-4.072-2.856l-.042-.763.002-4.87.049-.763c.257-2.162 2-2.858 4.063-2.858s3.848.69 4.06 2.858c.037.368.025.763.025.763v.386h-2.916v-.645c.002.002-.005-.275-.037-.44-.05-.257-.27-.844-1.154-.844-.844 0-1.09.555-1.152.844-.035.153-.05.358-.05.546v5.29a2.48 2.48 0 0 0 .03.439c.046.303.338.833 1.175.833z" id="svg_3"/></g></symbol><g class="currentLayer" style=""><title>Layer 1</title><use x="0.5" y="0.5" xlink:href="#A" id="svg_4"/></g></svg>