<svg xmlns="http://www.w3.org/2000/svg" xmlns:xlink="http://www.w3.org/1999/xlink" width="84" height="15" fill="#fff" fill-rule="evenodd" stroke="#000" stroke-linecap="round" stroke-linejoin="round" xmlns:v="https://vecta.io/nano" style=""><rect id="backgroundrect" width="100%" height="100%" x="0" y="0" fill="none" stroke="none"/><symbol id="A" overflow="visible"><path d="M.256 12.656v-2.493q2.13.67 3.77.67 2.262-.002 2.262-1.2a.98.98 0 0 0-.33-.75q-.335-.32-1.726-.897Q1.737 6.966.98 6.242 0 5.288 0 3.842 0 1.967 1.428.98q1.428-.987 3.68-.968 1.25 0 3.617.46v2.4q-1.76-.703-3.266-.703-2.126 0-2.126 1.17c.003.298.167.57.428.714q.352.223 1.96.946 2.313 1.027 3.08 1.785.9.9.9 2.33 0 2.056-1.785 3.133-1.45.876-3.75.874a17.21 17.21 0 0 1-3.919-.46zM11.706.223h3.534v12.636h-3.534zm6.765 12.636V.223h9.053v2.286h-5.65v2.853h4.92v2.084h-4.92v3h5.797v2.42zm11.503 0V.223h4.577l3.186 8.074L40.991.223h4.347v12.636h-3.347v-8.95l-3.705 9.072h-2.2l-3.635-9.072v8.95zm18.602 0V.223h9.053v2.286h-5.65v2.853h4.92v2.084h-4.92v3h5.807v2.42zm11.522 0V.223h4.092l4.34 8.46V.223h2.487v12.636h-3.976l-4.455-8.573v8.573zm13.426-.204v-2.493q2.113.67 3.77.67 2.264 0 2.264-1.196c.005-.284-.1-.557-.32-.75q-.34-.322-1.738-.893-2.487-1.017-3.252-1.75-.98-.947-.98-2.42 0-1.866 1.428-2.847Q76.096 0 78.376 0q1.275 0 3.303.406l.312.054v2.4q-1.76-.703-3.278-.703-2.118 0-2.117 1.17c.003.298.166.57.427.714q.34.215 1.973.946 2.298 1.027 3.07 1.786.905.9.905 2.33 0 2.056-1.777 3.133-1.45.876-3.76.874c-1.32-.002-2.635-.157-3.92-.46z" fill="#099" fill-rule="nonzero" stroke="none" id="svg_1"/></symbol><g class="currentLayer" style=""><title>Layer 1</title><use x="0.5" y="0.5" xlink:href="#A" id="svg_2"/></g></svg>