<svg xmlns="http://www.w3.org/2000/svg" xmlns:v="https://vecta.io/nano" width="624.76" height="163.46" style=""><rect id="backgroundrect" width="100%" height="100%" x="0" y="0" fill="none" stroke="none"/><g class="currentLayer" style=""><title>Layer 1</title><path d="M269.31 26.396l-63.988 109.76h-12.995l64.528-109.76h12.456m-54.77-.225l54.77 109.99h-20.91l-56.074-109.99h22.214M275.11 135.89h18.526V26.67H275.11zm89.62 0h-55.759V26.4h18.751v100.5h37.008v8.993m8.99-.003h18.796V26.67H373.72zm32.02.27V26.67h17.177l50.228 84.358V26.4h11.646v109.76h-20.865l-46.271-78.557v78.557h-11.916" id="svg_1"/><g fill="#8e0027" stroke="#8e0027" id="svg_2"><path d="M34.357 2.878L2.34 34.895l46.316 46.541-46.541 46.496 32.241 32.017h51.307l-31.612-31.747 46.406-46.541-47.08-47.035L85.124 2.879z" stroke-width="4.231" id="svg_3"/><path d="M88.317 2.203l14.839 14.839 25.092 25.226 39.391-39.391-50.228-.135-14.255 14.299M88.767 160.4l40.201-40.201 41.055 41.055-51.442-.135-15.424-15.244" stroke-width="4.407" id="svg_4"/></g><path d="M568.88 26.396l-63.988 109.76h-12.951l64.528-109.76h12.411m-54.725-.225l54.725 109.99h-20.91l-56.029-109.99h22.214" id="svg_5"/><path d="M604.36 63.808c10.387 0 18.751-8.364 18.751-18.751 0-10.342-8.364-18.751-18.751-18.751-10.342 0-18.751 8.409-18.751 18.751 0 10.387 8.409 18.751 18.751 18.751z" fill="none" stroke="#000" stroke-width="3.305" id="svg_6"/><path d="M605.56 33.219c2.76 0 5.94.517 7.41 3.013 1.2 2.153 1.2 4.908 0 7.146-1.12 1.98-3.36 2.927-5.6 3.186l6.8 10.503h-3.96l-6.45-10.245h-3.88v10.245h-3.7V33.305zm-1.55 10.503c1.47 0 3.02 0 4.4-.602 1.72-.775 2.06-2.841 1.55-4.563-.87-1.378-1.9-1.98-3.19-2.152l-2.15-.173h-4.48v7.577" id="svg_7"/></g></svg>