<svg xmlns="http://www.w3.org/2000/svg" width="64" height="64" fill="none" xmlns:v="https://vecta.io/nano"><path d="M50.637 46.029l-8.397-8.397c-1.229-1.229-3.277-1.229-4.557 0-1.229 1.28-1.229 3.277 0 4.557l13.875 13.875c.051.051.102.512.051.563-.051.102-.102.461-.205.461H40.909c-1.792 0-3.226 1.536-3.226 3.328s1.434 3.328 3.226 3.328h11.878c5.581 0 10.906-5.427 10.906-11.008V40.858c0-1.792-1.536-3.226-3.328-3.226s-3.328 1.434-3.328 3.226v10.445a.256.256 0 1 1-.512 0v-.256L51.2 45.978c-.051.102-.461.102-.563.051zM7.68 51.558a.24.24 0 0 1-.256-.256V40.858c0-1.792-1.536-3.226-3.328-3.226S.768 39.117.768 40.858v11.878c0 5.581 4.915 11.008 10.496 11.008h11.878c1.792 0 3.226-1.536 3.226-3.328s-1.434-3.328-3.226-3.328H12.698c-.102 0-.205-.358-.205-.461a.55.55 0 0 1 .051-.41L26.419 42.24a3.34 3.34 0 0 0 0-4.608 3.18 3.18 0 0 0-4.557 0l-8.397 8.397c-.102.102-.307.102-.41 0l-5.12 5.069v.256c0 .102-.102.205-.256.205zm3.43-50.534C5.478 1.024.768 5.632.768 11.213v11.878c0 1.792 1.536 3.226 3.328 3.226s3.328-1.485 3.328-3.226V12.646c0-.102.154-.205.205-.205.102-.051.256 0 .307.051l13.875 13.875c.614.614 1.434.922 2.304.922s1.69-.358 2.304-.922a3.23 3.23 0 0 0 0-4.557L12.544 7.936c-.051-.051-.102-.205-.051-.307s.102-.205.205-.205h10.394c1.792 0 3.226-1.536 3.226-3.328S24.883.768 23.142.768h-6.349-.256-5.018s-.307.256-.41.256zm29.85 0c-1.792 0-3.226 1.434-3.226 3.174 0 1.792 1.434 3.174 3.226 3.174h10.394c.102 0 .205.102.205.205.051.102 0 .205-.051.307L37.683 21.76c-1.229 1.229-1.229 3.277 0 4.557a3.18 3.18 0 0 0 2.253.922c.87 0 1.69-.358 2.253-.922l13.875-13.875a1.02 1.02 0 0 1 .563-.051c.102.051.41.154.41.205V23.04c0 1.792 1.536 3.226 3.328 3.226s3.328-1.434 3.328-3.226V11.213C63.744 5.632 58.419.768 52.838.768H46.49h-.256-5.018s-.102.256-.256.256z" fill="#f07300"/><path d="M52.787 64H40.909c-2.253 0-3.994-1.69-3.994-3.84s1.741-3.84 3.994-3.84h9.216L37.171 43.059c-1.536-1.587-1.485-4.352.051-5.888.717-.717 1.741-1.126 2.867-1.075 1.075.051 2.099.461 2.816 1.178l8.55 8.55c.205.205.205.512 0 .717s-.512.205-.717 0l-8.55-8.55c-1.178-1.178-3.123-1.229-4.25-.102-1.178 1.178-1.178 3.277-.051 4.454l13.824 14.131c.154.154.205.358.102.563s-.256.307-.461.307H40.909c-1.69 0-2.97 1.229-2.97 2.816s1.28 2.816 2.97 2.816h11.878c5.376 0 10.138-4.762 10.138-10.24V40.858c0-1.69-1.229-2.97-2.816-2.97s-2.816 1.28-2.816 2.97v11.11a.48.48 0 0 1-.512.512.48.48 0 0 1-.512-.512v-11.11c0-2.253 1.69-3.994 3.84-3.994s3.84 1.741 3.84 3.994v11.878c0 5.99-5.222 11.264-11.162 11.264zm-29.593 0h-11.93C5.274 64 0 58.726 0 52.736V40.858c0-2.15 1.894-3.994 4.096-3.994s4.096 1.843 4.096 3.994v11.11a.48.48 0 0 1-.512.512.48.48 0 0 1-.512-.512v-11.11c0-1.587-1.382-2.97-3.072-2.97-1.638 0-3.072 1.382-3.072 2.97v11.878c0 5.478 4.762 10.24 10.24 10.24h11.93c1.69 0 2.97-1.229 2.97-2.816s-1.28-2.816-2.97-2.816H12.749c-.205 0-.41-.102-.461-.307s-.051-.41.102-.563l13.824-14.438a2.87 2.87 0 0 0 0-4.147c-1.126-1.126-3.021-1.075-4.198.102l-8.448 8.55c-.205.205-.512.205-.717 0s-.205-.512 0-.717l8.448-8.55c1.536-1.536 4.147-1.587 5.632-.102 1.587 1.587 1.587 4.045 0 5.581L13.926 56.32h9.267c2.253 0 3.994 1.69 3.994 3.84S25.446 64 23.194 64zm.87-35.942a4.13 4.13 0 0 1-2.816-1.178L8.192 13.875v9.216c0 2.15-1.894 3.994-4.096 3.994S0 25.242 0 23.091V11.213C0 5.222 5.171.154 11.264.154a.48.48 0 0 1 .512.512.48.48 0 0 1-.512.512c-5.53 0-10.24 4.608-10.24 10.035v11.878c0 1.587 1.434 2.97 3.072 2.97 1.69 0 3.072-1.382 3.072-2.97V12.646c0-.205.102-.41.307-.461.205-.102.41-.051.563.102l13.926 13.875a2.99 2.99 0 0 0 2.099.87 2.99 2.99 0 0 0 2.099-.87c.563-.563.87-1.331.87-2.15a2.87 2.87 0 0 0-.87-2.048L12.339 8.038c-.154-.154-.205-.358-.102-.563s.256-.307.461-.307h10.394c1.587 0 2.97-1.434 2.97-3.072 0-1.69-1.382-3.072-2.97-3.072h-5.939a.48.48 0 0 1-.512-.512.48.48 0 0 1 .512-.512h5.939c2.15 0 3.994 1.894 3.994 4.096s-1.843 4.096-3.994 4.096h-9.165L26.88 21.248c.717.717 1.178 1.69 1.178 2.765s-.41 2.15-1.178 2.867a4.13 4.13 0 0 1-2.816 1.178zm16.026 0c-1.024 0-2.15-.461-2.867-1.178s-1.178-1.741-1.178-2.816.358-2.099 1.126-2.816L50.125 8.243H40.96c-2.202 0-3.994-1.792-3.994-3.942 0-2.202 1.946-4.096 4.147-4.096a.48.48 0 0 1 .512.512.48.48 0 0 1-.512.512c-1.638 0-3.123 1.485-3.123 3.072s1.331 2.918 2.97 2.918h10.394c.205 0 .41.102.461.307.102.205.051.41-.102.563L37.888 21.965c-.563.563-.819 1.28-.819 2.099a2.99 2.99 0 0 0 .87 2.099c.563.563 1.382.87 2.15.87.819 0 1.741-.358 2.253-.87l14.131-13.875c.154-.154.358-.205.563-.102s.307.256.307.461v10.445c0 1.69 1.229 2.97 2.816 2.97s2.816-1.28 2.816-2.97V11.213c0-5.427-4.762-10.189-10.138-10.189h-5.99a.48.48 0 0 1-.512-.512.48.48 0 0 1 .512-.512h5.99C58.88 0 64 5.12 64 11.213v11.878c0 2.253-1.69 3.994-3.84 3.994s-3.84-1.741-3.84-3.994v-9.216L43.059 26.88c-.717.717-1.843 1.178-2.97 1.178z" fill="#000"/></svg>