<svg xmlns="http://www.w3.org/2000/svg" width="64" height="64" fill="none" xmlns:v="https://vecta.io/nano"><path d="M57.216 20.48L50.56 9.088c-.512-.768-1.408-1.28-2.304-1.28h-44.8c-1.152 0-2.176 1.024-2.176 2.176v23.68c0 1.28 1.024 2.176 2.176 2.176h44.8c.896 0 1.792-.512 2.304-1.28l6.656-11.392c.512-.768.512-1.792 0-2.688zm-7.808 3.968a2.57 2.57 0 0 1-2.56-2.56 2.57 2.57 0 0 1 2.56-2.56 2.57 2.57 0 0 1 2.56 2.56 2.57 2.57 0 0 1-2.56 2.56z" fill="#f07300"/><path d="M36.992 56.192c-.384 0-.896 0-1.28-.128-1.664-.256-3.2-1.024-4.224-2.304-1.664-2.048-2.176-5.376-1.28-8.32.896-2.432 2.688-4.608 5.12-5.76 1.792-.896 3.968-1.408 6.656-1.408h3.072c1.152 0 2.176.128 3.2 0 2.688-.128 5.248-.64 7.808-1.536 1.152-.512 2.56-1.024 3.328-2.304 1.024-1.536 1.152-3.968.256-6.016-.768-1.792-2.176-3.2-4.096-4.096-1.792-.768-3.84-1.024-5.76-1.152-.64 0-1.28-.64-1.152-1.28 0-.64.64-1.28 1.28-1.152 2.176.128 4.48.384 6.656 1.28 2.432 1.152 4.352 3.072 5.376 5.376 1.152 2.816 1.024 6.144-.512 8.448-1.152 1.792-3.072 2.688-4.48 3.2-2.816 1.024-5.632 1.664-8.576 1.664h-3.456c-1.024 0-1.92-.128-2.944 0-2.304 0-4.096.384-5.632 1.152-1.792.896-3.2 2.56-3.84 4.352-.64 2.048-.384 4.48.768 5.888.768 1.024 1.92 1.28 2.688 1.408 2.432.384 4.992-.896 6.656-3.2.384-.512 1.152-.768 1.792-.384s.768 1.152.384 1.792c-1.92 2.816-4.864 4.48-7.808 4.48z" fill="#656766"/><path d="M9.984 18.688v2.432h4.096v1.408H9.984v3.712H8.448v-9.088h6.016v1.408h-4.48v.128zm13.568 1.536c0 1.536-.64 2.432-1.92 2.816l2.432 3.328h-1.92l-2.176-3.072H17.92v3.072h-1.536V17.28h3.328c1.408 0 2.432.256 2.944.64.64.512.896 1.28.896 2.304zm-2.048 1.28c.256-.256.512-.64.512-1.28s-.128-1.024-.512-1.28-.896-.384-1.664-.384h-1.92v3.2h1.92c.768.128 1.408 0 1.664-.256zm10.624-4.224v1.408h-4.864v2.432h4.352v1.408h-4.352v2.432h4.992v1.408h-6.528V17.28h6.4zm8.576 0v1.408H35.84v2.432h4.352v1.408H35.84v2.432h4.992v1.408h-6.528V17.28h6.4z" fill="#fff"/></svg>