<svg xmlns="http://www.w3.org/2000/svg" width="64" height="64" fill="none" xmlns:v="https://vecta.io/nano"><path d="M47.174.992h-6.597v15.173h6.597V.992zm-23.751 0h-6.597v15.173h6.597V.992zM34.64 49.154h-5.278v13.855h5.278V49.154z" fill="#d8d8da"/><g fill="#f07300"><path d="M52.452 16.166v7.917h-3.299-33.647-3.958v-7.917h5.278 6.598 17.153 6.598 5.278z"/><path d="M15.506 49.154v-25.07h33.647v25.07H34.639h-5.278-13.855z"/><path d="M16.847 16.166h-.021-5.278v7.917h3.958 4.69c-1.361-2.502-2.488-5.151-3.35-7.917z"/><path d="M20.197 24.083h-4.69v25.07h13.855 5.278 14.514v-3.103c-12.507-2.857-22.989-10.998-28.957-21.968z"/></g><path d="M53.444 15.174h-5.278V0h-8.582v15.174H32v1.984h19.46v5.933H12.54v-5.933h16.821v-1.984h-4.946V0h-8.582v15.174h-5.278v9.901h3.958v7.584h1.984v-7.584H48.16v23.086H16.498V35.299h-1.984v14.846h13.855V64h7.262V50.146h14.514v-25.07h3.299v-9.901zm-7.262 0h-4.614V1.984h4.614v13.19zM17.818 1.984h4.614v13.19h-4.614V1.984zm15.829 60.032h-3.294v-11.87h3.294v11.871zm10.888-32.988H19.464v1.984h25.071v-1.984zm0 13.197H19.464v1.984h25.071v-1.984zm-3.959-6.599H23.423v1.984h17.154v-1.984z" fill="#000"/><path d="M44.535 35.626h-2.639v1.984h2.639v-1.984zm-22.432 0h-2.639v1.984h2.639v-1.984zm-3.297-16.494h-3.299v1.984h3.299v-1.984zm29.688 0h-3.299v1.984h3.299v-1.984z" fill="#fff"/></svg>