<svg xmlns="http://www.w3.org/2000/svg" width="65" height="64" fill="none" xmlns:v="https://vecta.io/nano"><g clip-path="url(#A)"><path d="M16.705 32.891c-.024-.062-.049-.146-.061-.219l-.381-3.01-.466-4.078c-.086-.755-.368-1.474-.779-2.01-.276-.344-.583-.599-.926-.724-.276-.094-.614-.104-.963.01-.479.156-1.012.484-1.607 1.057-.528.51-.939 1.193-1.282 1.917-.485 1.057-.773 2.182-.89 2.953-.012.052-.012.094-.037.135L6.011 44.828c-.049.208-.147.396-.295.542-1.111 1.214-1.81 2.255-2.012 3.099-.147.62 0 1.12.485 1.51l12.148 10.313c.773.63 1.669 1.026 2.743 1.193 1.172.188 2.54.083 4.111-.281.024 0 .061-.01.086-.01l2.123-.458c3.258-.672 6.099-1.266 8.731-3.297l3.387-3c.031-.052.086-.094.135-.135l.828-.682c2.319-1.922 5.185-4.297 3.442-6.375l-1.356-1.151-2.025 1.573-1.706 1.328c-.558.474-1.46.474-2.025 0-.558-.479-.558-1.24 0-1.719l1.841-1.437c2.295-1.719 4.927-3.682 3.516-5.406l-1.344-1.141c-.074-.062-.135-.135-.19-.208l-2.454 1.938-1.706 1.328c-.558.474-1.46.474-2.025 0s-.558-1.24 0-1.719l1.841-1.437c2.295-1.719 4.927-3.682 3.516-5.406l-1.344-1.141a1.08 1.08 0 0 1-.233-.26l-3.939 3.344c-.558.474-1.46.474-2.025 0s-.558-1.24 0-1.719l10.565-8.984c1.767-1.5 2.172-3.062 1.706-4.245-.172-.432-.454-.818-.804-1.115s-.804-.537-1.313-.682c-1.374-.385-3.209-.031-5.025 1.51L16.865 36.224c-.558.474-1.46.474-2.025 0s-.558-1.24 0-1.719l1.884-1.599-.018-.016zm35.206-20.229c-.748.677-1.988.698-2.773.073-.798-.635-.822-1.687-.086-2.354l5.411-4.891c.749-.677 1.994-.698 2.773-.073.798.635.822 1.688.086 2.354l-5.412 4.891zm-24.094-.344c.798.635.822 1.693.086 2.354-.748.677-1.994.698-2.773.073l-5.767-4.594c-.792-.641-.816-1.693-.086-2.354.749-.677 1.994-.698 2.773-.073l5.767 4.594zm12.106-4.005c.031.917-.822 1.687-1.896 1.719s-1.988-.698-2.025-1.609l-.239-6.703C35.726.807 36.585.031 37.658 0c1.08-.026 1.988.698 2.019 1.609l.245 6.703zm8.093 24.661c-.798-.635-.822-1.693-.086-2.354.749-.677 1.988-.698 2.773-.073l5.761 4.594c.798.636.822 1.688.086 2.354-.748.677-1.988.698-2.773.073l-5.761-4.594zm7.044-9.875c-1.074.031-1.988-.698-2.025-1.609-.031-.912.822-1.687 1.896-1.719l7.89-.224c1.074-.031 1.988.698 2.025 1.609s-.822 1.688-1.896 1.719l-7.89.224zm-16.86 7.615a1.5 1.5 0 0 1 .307.198l1.405 1.193c.074.063.147.146.209.219 1.577 1.833 1.331 3.469.258 4.958.19.063.38.151.528.281l1.405 1.193c.074.063.147.146.209.219 1.693 1.979 1.27 3.708 0 5.281.061.026.104.073.172.125l1.405 1.193a1.9 1.9 0 0 1 .209.219c3.258 3.781-.626 6.99-3.743 9.578l-.804.682-3.479 3.099-.11.089c-3.184 2.453-6.338 3.109-9.989 3.865l-2.086.448c-.024 0-.037.01-.061.01-1.976.458-3.767.568-5.375.323-1.632-.25-3.049-.87-4.234-1.854L2.262 51.714C1.035 50.708.612 49.469.962 47.995c.264-1.177 1.074-2.484 2.338-3.891L6.551 28.51v-.062A14.8 14.8 0 0 1 7.6 24.969c.436-.953 1.025-1.886 1.792-2.641.926-.891 1.841-1.437 2.743-1.729 1.111-.359 2.172-.312 3.111.031.877.313 1.62.88 2.184 1.604.687.87 1.135 1.979 1.258 3.135l.479 4.068.147 1.287 14.051-11.937c2.7-2.292 5.62-2.745 7.958-2.094.939.26 1.767.693 2.454 1.276s1.196 1.286 1.503 2.083c.773 1.979.245 4.495-2.405 6.745l-4.657 3.953-.018-.036z" fill="#f07300"/></g><defs><clipPath id="A"><path fill="#fff" transform="translate(.845)" d="M0 0h64v64H0z"/></clipPath></defs></svg>