<svg xmlns="http://www.w3.org/2000/svg" width="64" height="64" fill="none" xmlns:v="https://vecta.io/nano"><path d="M61.585 37.201c-3.467-2.6-3.467-7.801 0-10.401l1.907-1.43-2.117-6.515-2.384-.036c-4.334-.065-7.391-4.273-6.114-8.415l.703-2.278-5.542-4.027-1.95 1.372c-3.544 2.494-8.491.887-9.892-3.214L35.425 0h-6.851l-.771 2.256c-1.401 4.101-6.348 5.708-9.892 3.214l-1.949-1.372-5.542 4.027.703 2.278c1.277 4.142-1.78 8.349-6.114 8.415l-2.384.036-2.117 6.515 1.907 1.43c3.467 2.6 3.467 7.801 0 10.401l-1.908 1.43 2.117 6.515 2.384.036c4.333.065 7.391 4.273 6.114 8.415l-.702 2.278 5.542 4.027 1.95-1.372c3.544-2.494 8.491-.887 9.892 3.214L28.574 64h6.851l.771-2.256c1.401-4.101 6.348-5.709 9.892-3.214l1.95 1.372 5.542-4.027-.703-2.278c-1.277-4.142 1.78-8.349 6.114-8.415l2.384-.036 2.117-6.515-1.907-1.431zM32.137 47.707a15.71 15.71 0 0 1-15.844-15.844c.073-8.528 7.042-15.498 15.571-15.571a15.71 15.71 0 0 1 15.844 15.844c-.073 8.528-7.042 15.498-15.571 15.571z" fill="#f07300"/><path d="M40.536 6.394c-1.939-.564-3.614-2.016-4.34-4.138L35.426 0h-3.638l.771 2.256c1.162 3.401 4.761 5.084 7.978 4.138zM14.273 5.47c1.71 1.203 3.746 1.45 5.553.924a6.5 6.5 0 0 1-1.914-.924l-1.95-1.372-1.79 1.301.101.071zm47.312 21.329l1.907-1.43-2.117-6.515-2.384-.036c-4.334-.065-7.391-4.273-6.114-8.415l.703-2.278-5.542-4.027-1.848 1.301 3.752 2.726-.702 2.278c-1.277 4.142 1.78 8.349 6.114 8.415l2.384.036 2.117 6.515-1.907 1.43c-3.467 2.6-3.467 7.801 0 10.401l1.907 1.43-2.117 6.515-2.384.036c-4.334.065-7.391 4.273-6.114 8.415l.702 2.278L46.19 58.6l1.848 1.301 5.542-4.027-.703-2.278c-1.277-4.142 1.78-8.349 6.114-8.415l2.384-.036 2.117-6.515-1.907-1.43c-3.468-2.6-3.468-7.801 0-10.401zM14.273 58.53l-.101.071 1.79 1.301 1.95-1.372a6.51 6.51 0 0 1 1.914-.924c-1.807-.525-3.843-.279-5.553.924zm18.285 3.214L31.787 64h3.638l.771-2.256c.725-2.123 2.401-3.575 4.34-4.139-3.216-.946-6.816.738-7.978 4.139z" fill="#d06400"/><path d="M32 11.287c-11.44 0-20.713 9.273-20.713 20.713S20.561 52.713 32 52.713 52.713 43.439 52.713 32 43.439 11.287 32 11.287zm.137 36.42a15.71 15.71 0 0 1-15.844-15.844c.073-8.528 7.042-15.498 15.571-15.571a15.71 15.71 0 0 1 15.844 15.844c-.073 8.529-7.042 15.498-15.571 15.571z" fill="#d8d8da"/></svg>